<?xml version="1.0" standalone="no"?>
<!DOCTYPE svg PUBLIC "-//W3C//DTD SVG 20010904//EN"
 "http://www.w3.org/TR/2001/REC-SVG-20010904/DTD/svg10.dtd">
<svg version="1.0" xmlns="http://www.w3.org/2000/svg"
 width="1024.000000pt" height="1024.000000pt" viewBox="0 0 1024.000000 1024.000000"
 preserveAspectRatio="xMidYMid meet">
<metadata>
Created by potrace 1.14, written by Peter Selinger 2001-2017
</metadata>
<g transform="translate(0.000000,1024.000000) scale(0.100000,-0.100000)"
fill="#000000" stroke="none">
<path d="M7435 10180 c-33 -5 -82 -11 -110 -14 -316 -36 -702 -175 -995 -359
-199 -125 -311 -215 -482 -388 -297 -301 -511 -665 -626 -1061 -74 -257 -96
-419 -97 -698 0 -315 25 -487 115 -775 136 -436 409 -847 770 -1159 253 -219
630 -424 940 -512 56 -15 222 -54 255 -59 22 -4 42 -8 45 -10 3 -2 37 -6 75
-10 39 -4 79 -10 90 -12 11 -3 112 -7 225 -8 182 -3 320 6 445 29 17 3 48 8
70 12 166 25 476 130 660 223 135 67 329 188 418 260 257 207 463 434 615 678
168 268 301 620 347 913 3 19 7 46 10 60 27 146 26 604 -1 732 -2 13 -7 34 -9
48 -49 306 -171 629 -335 893 -28 45 -57 91 -63 102 -7 11 -14 22 -17 25 -3 3
-23 30 -45 60 -42 59 -40 57 -143 175 -73 84 -198 206 -271 265 -24 19 -48 40
-55 45 -79 70 -266 191 -418 269 -237 123 -436 190 -740 250 -7 2 -33 6 -58 9
-25 4 -63 9 -85 13 -65 9 -465 12 -530 4z"/>
<path d="M2399 5105 c-2 -2 -38 -6 -79 -10 -41 -3 -82 -8 -90 -10 -8 -2 -35
-7 -60 -10 -147 -21 -431 -103 -565 -164 -116 -53 -235 -113 -305 -155 -77
-45 -278 -184 -306 -211 -6 -5 -37 -32 -70 -60 -94 -80 -232 -223 -309 -320
-22 -27 -42 -52 -45 -55 -13 -11 -120 -169 -160 -235 -56 -91 -140 -258 -183
-365 -65 -159 -135 -407 -152 -540 -4 -30 -9 -64 -11 -75 -13 -65 -19 -172
-19 -340 0 -171 10 -359 20 -375 2 -3 6 -24 9 -45 10 -79 36 -192 66 -290 17
-55 33 -109 35 -120 19 -83 131 -323 221 -475 344 -583 920 -1014 1569 -1174
89 -22 135 -31 255 -51 166 -27 557 -27 710 -1 14 3 46 7 72 11 26 3 53 8 60
10 7 2 24 6 38 9 95 16 335 89 455 139 97 41 313 155 401 212 168 110 278 200
429 351 347 346 590 803 685 1285 48 245 48 241 49 1697 l1 1372 -1358 0
c-748 -1 -1361 -2 -1363 -5z"/>
</g>
</svg>
